<svg xmlns="http://www.w3.org/2000/svg" viewBox="0 0 108.08 106.66"><defs><style>.cls-1{fill:#4d4d4d;}.cls-2{fill:#fff;}</style></defs><g id="Layer_2" data-name="Layer 2"><g id="Emblems"><path class="cls-1" d="M108.08,53.33c0-3.14-2.23-6-2.76-9s.56-6.57-.48-9.44-4.16-4.89-5.7-7.55-1.72-6.34-3.7-8.7-5.57-3.16-7.93-5.15-3.76-5.37-6.44-6.92-6.3-1.06-9.22-2.13S66.5.64,63.43.1,57.18,1.27,54,1.27,47.65-.42,44.66.1,39.1,3.35,36.23,4.39,29.67,5,27,6.52s-4.09,4.94-6.44,6.92-5.95,2.79-7.94,5.15-2.14,6-3.7,8.7-4.63,4.63-5.69,7.55,0,6.37-.49,9.45S0,50.19,0,53.33s2.24,6.05,2.76,9S2.2,69,3.25,71.82s4.16,4.89,5.69,7.54,1.72,6.35,3.7,8.71,5.57,3.16,7.93,5.14,3.76,5.38,6.45,6.93,6.29,1.06,9.21,2.13,5.35,3.75,8.43,4.29,6.24-1.17,9.38-1.17,6.39,1.69,9.39,1.17,5.55-3.25,8.42-4.29,6.56-.6,9.22-2.13,4.08-4.94,6.44-6.93,5.94-2.78,7.93-5.14,2.15-6,3.7-8.71,4.63-4.62,5.7-7.54-.06-6.37.48-9.45S108.08,56.47,108.08,53.33ZM54,101.65a48.32,48.32,0,1,1,48.32-48.32A48.32,48.32,0,0,1,54,101.65Z"/><path class="cls-1" d="M59.21,17.07a9.34,9.34,0,0,0-1.84-2.27,5,5,0,0,0-6.68,0,9.46,9.46,0,0,0-1.82,2.26,12.73,12.73,0,0,0-1.49,6.36,12.73,12.73,0,0,0,1.49,6.36,7.59,7.59,0,0,0,.61.91,5.81,5.81,0,0,0,9.11,0,9.27,9.27,0,0,0,.63-.92,12.73,12.73,0,0,0,1.48-6.36A12.73,12.73,0,0,0,59.21,17.07Z"/><path class="cls-2" d="M55.86,14.34A8.53,8.53,0,0,1,60,20.13a14,14,0,0,1-.59,8.43,6.93,6.93,0,0,1-2.08,2.79c1.79-1.51,2.51-4,2.73-6.26A12.94,12.94,0,0,0,58.48,17,7.88,7.88,0,0,0,55.86,14.34Z"/><path class="cls-2" d="M54.66,15.21l0,.2c0,.13,0,.33-.08.58a15,15,0,0,0,0,2.07c0,.43,0,.9.05,1.38a6.88,6.88,0,0,0,.3,1.5,6.55,6.55,0,0,0,.71,1.46A8.35,8.35,0,0,1,56.33,24a4.08,4.08,0,0,1,.23,1.73,9.81,9.81,0,0,1-.29,1.65c-.14.52-.3,1-.46,1.48a11.65,11.65,0,0,1-.48,1.31,7,7,0,0,1-1.1,1.77c-.16.19-.3.33-.4.43l-.15.14.14-.15a5.53,5.53,0,0,0,.38-.44,7.86,7.86,0,0,0,1-1.8,13.35,13.35,0,0,0,.44-1.31c.14-.47.29-1,.42-1.48a9.45,9.45,0,0,0,.27-1.62A3.94,3.94,0,0,0,56.11,24a8.18,8.18,0,0,0-.73-1.52A7.21,7.21,0,0,1,54.67,21a5.76,5.76,0,0,1-.28-1.55c0-.5,0-1,0-1.39A13.09,13.09,0,0,1,54.49,16c0-.25.08-.44.11-.57Z"/><path class="cls-2" d="M54.22,14.8A16.76,16.76,0,0,0,54,18.45a7,7,0,0,0,.72,3.71,16.33,16.33,0,0,1,1.07,2.08c.45,1.36-.16,2.93-.54,4.29a7.33,7.33,0,0,1-1.91,3.56,20.17,20.17,0,0,0,.74-3.39,8.16,8.16,0,0,0-.62-3.59A31.26,31.26,0,0,1,52,22.05a7.87,7.87,0,0,1,.56-4.18A6.68,6.68,0,0,1,54.22,14.8Z"/><path class="cls-1" d="M77.11,27.33a7,7,0,0,0,.23-2.17,3.73,3.73,0,0,0-3.53-3.52,7,7,0,0,0-2.16.23,9.43,9.43,0,0,0-4.15,2.57,9.51,9.51,0,0,0-2.58,4.15,5.76,5.76,0,0,0-.15.81,4.33,4.33,0,0,0,4.8,4.82c.27,0,.54-.09.82-.16a9.58,9.58,0,0,0,4.15-2.57A9.51,9.51,0,0,0,77.11,27.33Z"/><path class="cls-2" d="M76.78,24.12a6.34,6.34,0,0,1-.88,5.24,10.39,10.39,0,0,1-4.77,4.14,5.29,5.29,0,0,1-2.58.38A6.9,6.9,0,0,0,73.31,32a9.64,9.64,0,0,0,3.48-5.13A5.85,5.85,0,0,0,76.78,24.12Z"/><path class="cls-2" d="M75.69,23.94l-.13.09-.35.26a11.66,11.66,0,0,0-1.11,1.08c-.21.24-.46.49-.7.76a4.9,4.9,0,0,0-.63.95,5.2,5.2,0,0,0-.4,1.15A7.15,7.15,0,0,1,72,29.46a3.19,3.19,0,0,1-.79,1,7.66,7.66,0,0,1-1,.72c-.35.2-.7.38-1,.54a9.75,9.75,0,0,1-.94.44,5,5,0,0,1-1.52.35,4,4,0,0,1-.44,0h0c.1,0,.25,0,.43,0a5.74,5.74,0,0,0,1.49-.41c.29-.12.6-.29.92-.46s.67-.36,1-.56a8.3,8.3,0,0,0,1-.71,3,3,0,0,0,.74-1,6.48,6.48,0,0,0,.42-1.19A5.17,5.17,0,0,1,72.63,27a4.31,4.31,0,0,1,.67-1c.26-.28.51-.51.73-.75a9.89,9.89,0,0,1,1.16-1,2.67,2.67,0,0,1,.37-.25Z"/><path class="cls-2" d="M75.67,23.5a12.24,12.24,0,0,0-2.06,1.79A5.45,5.45,0,0,0,72,27.64a11.88,11.88,0,0,1-.53,1.66c-.48,1-1.64,1.46-2.55,2a5.64,5.64,0,0,1-2.89.87,14.86,14.86,0,0,0,2.17-1.41,6,6,0,0,0,1.58-2.22,24.7,24.7,0,0,1,.87-2.36,5.84,5.84,0,0,1,2.51-1.91A4.84,4.84,0,0,1,75.67,23.5Z"/><path class="cls-1" d="M31,27.33a7,7,0,0,1-.23-2.17,3.73,3.73,0,0,1,3.54-3.52,7,7,0,0,1,2.16.23,9.54,9.54,0,0,1,4.15,2.57,9.49,9.49,0,0,1,2.57,4.15,7.73,7.73,0,0,1,.16.81,4.35,4.35,0,0,1-4.81,4.82c-.27,0-.54-.09-.82-.16a9.58,9.58,0,0,1-4.15-2.57A9.51,9.51,0,0,1,31,27.33Z"/><path class="cls-2" d="M31.3,24.12a6.37,6.37,0,0,0,.88,5.24A10.44,10.44,0,0,0,37,33.5a5.3,5.3,0,0,0,2.58.38A6.92,6.92,0,0,1,34.77,32a9.7,9.7,0,0,1-3.48-5.13A5.85,5.85,0,0,1,31.3,24.12Z"/><path class="cls-2" d="M32.39,23.94l.13.09a2.36,2.36,0,0,1,.35.26A10.58,10.58,0,0,1,34,25.37c.21.24.47.49.7.76a4.9,4.9,0,0,1,.63.95,4.35,4.35,0,0,1,.4,1.15,7.15,7.15,0,0,0,.42,1.23,3.22,3.22,0,0,0,.8,1,7,7,0,0,0,1,.72c.35.2.7.38,1,.54a9.88,9.88,0,0,0,1,.44,4.88,4.88,0,0,0,1.51.35,4,4,0,0,0,.44,0h0c-.1,0-.25,0-.43,0A5.85,5.85,0,0,1,40,32.1c-.29-.12-.6-.29-.92-.46s-.67-.36-1-.56a8.3,8.3,0,0,1-1-.71,3,3,0,0,1-.74-1,6.48,6.48,0,0,1-.42-1.19A5.17,5.17,0,0,0,35.45,27a4.31,4.31,0,0,0-.67-1c-.25-.28-.51-.51-.73-.75a9.89,9.89,0,0,0-1.16-1,3.55,3.55,0,0,0-.36-.25Z"/><path class="cls-2" d="M32.41,23.5a12.24,12.24,0,0,1,2.06,1.79,5.28,5.28,0,0,1,1.58,2.35,11.88,11.88,0,0,0,.53,1.66,5.92,5.92,0,0,0,2.56,2,5.62,5.62,0,0,0,2.89.87,14.42,14.42,0,0,1-2.18-1.41,5.89,5.89,0,0,1-1.57-2.22,24.77,24.77,0,0,0-.88-2.36,5.84,5.84,0,0,0-2.51-1.91A4.81,4.81,0,0,0,32.41,23.5Z"/><path class="cls-1" d="M33,82.14c3.41,3.08,7.85,1.64,10.86,1.07s12.51-.71,12.51-.71a5.87,5.87,0,0,1,1.89.19,1.81,1.81,0,0,1,1.13,1c1.29,2.88,5.54,2.61,5.54,2.61,8.78-.41,8.59-4.44,8.59-4.44s.19-4-8.59-4.44c0,0-4.25-.28-5.54,2.61a1.84,1.84,0,0,1-1.13,1,5.64,5.64,0,0,1-1.89.18S47,81.08,43.86,80.5s-7.45-2-10.86,1.08A.37.37,0,0,0,33,82.14Z"/><path class="cls-2" d="M33.56,81.62a6.7,6.7,0,0,1,2.93-1.49,11.34,11.34,0,0,1,3.94,0c1.38.2,2.73.56,4.11.74s2.85.27,4.28.35,3,.12,4.47.17a30.44,30.44,0,0,0,4.27,0,3,3,0,0,0,1.67-.62,6.33,6.33,0,0,0,.88-1.3,4.48,4.48,0,0,1,2.8-1.63,12,12,0,0,1,4.39.08,10.31,10.31,0,0,1,3.27,1,15.54,15.54,0,0,0-6.54-1,5.19,5.19,0,0,0-3.52,1.44,7.07,7.07,0,0,0-.65,1,2.54,2.54,0,0,1-1.3,1.07,11.9,11.9,0,0,1-4.21.21c-1.47,0-2.93-.08-4.39-.15s-2.88-.16-4.31-.29a42.09,42.09,0,0,1-4.16-.73,13.63,13.63,0,0,0-4.5-.3A7.72,7.72,0,0,0,33.56,81.62Z"/></g><g id="Text"><path class="cls-1" d="M29.92,57.52c.51,0,.77.54.77,1.61A5.73,5.73,0,0,1,30,62a5.86,5.86,0,0,1-1.75,2,9.46,9.46,0,0,1-2.32,1.14,10.43,10.43,0,0,1-8-.07,8.05,8.05,0,0,1-2.9-2,8.92,8.92,0,0,1-1.61-2.76,14,14,0,0,1-.93-5.06,19.2,19.2,0,0,1,.61-5,16.86,16.86,0,0,1,1.85-4.41,9.2,9.2,0,0,1,3.54-3.37,10.79,10.79,0,0,1,5.32-1.27,10.67,10.67,0,0,1,2.68.35,8.55,8.55,0,0,1,2.27.87,4.77,4.77,0,0,1,1.57,1.59,4.58,4.58,0,0,1,.69,2.52A4.7,4.7,0,0,1,30,49.35a3.47,3.47,0,0,1-1.29,1,4.57,4.57,0,0,1-2.09.45A2.75,2.75,0,0,1,24,49.45a2.29,2.29,0,0,1-.32-1.17c0-.43.17-.68.52-.74a2,2,0,0,0,1.05-.74,2.19,2.19,0,0,0,.48-1.41,1.62,1.62,0,0,0-.4-1.1,2.84,2.84,0,0,0-2.21-.84,3.77,3.77,0,0,0-2.64,1.11,6.86,6.86,0,0,0-1.79,2.78,18.18,18.18,0,0,0-1.21,6.16A9.61,9.61,0,0,0,18.44,58a5.87,5.87,0,0,0,2.86,2.81,6.72,6.72,0,0,0,2.5.44,6.07,6.07,0,0,0,4.27-1.78,6,6,0,0,0,1.33-1.67A.59.59,0,0,1,29.92,57.52Z"/><path class="cls-1" d="M36.85,52.56l-1.51,0c-.31,0-.47,0-.47-.18a.53.53,0,0,1,.25-.4q2.57-2,8.69-2a14.39,14.39,0,0,1,3.31.3l.4.1c.32.12.48.24.48.37s-.09.2-.28.27a7.86,7.86,0,0,0-2.09.85c-.68.4-1,.67-1,.83l.24.23a4.28,4.28,0,0,1,2,1.91,6.15,6.15,0,0,1,.79,2.31l.08,1a7.27,7.27,0,0,1-2.22,5.46,8.31,8.31,0,0,1-6,2.15,8.91,8.91,0,0,1-3.34-.57A5.67,5.67,0,0,1,34.05,64,6,6,0,0,1,33,62.38,6.94,6.94,0,0,1,33,57.16a5.24,5.24,0,0,1,1.25-2,6.07,6.07,0,0,1,1.59-1,4.68,4.68,0,0,1,1.81-.5c.46,0,.69.08.69.23l-.24.34a4.8,4.8,0,0,0-1.27,2.28A9.43,9.43,0,0,0,36.48,59a7.26,7.26,0,0,0,.33,2.16,4.92,4.92,0,0,0,.72,1.6,2.85,2.85,0,0,0,.93.78,3.38,3.38,0,0,0,1.61.41,2.9,2.9,0,0,0,1.65-.56,3.11,3.11,0,0,0,1.17-1.46,8.61,8.61,0,0,0,.72-3.45,5.55,5.55,0,0,0-1.71-4.35A7.32,7.32,0,0,0,36.85,52.56Z"/><path class="cls-1" d="M55.05,56.82l.2,6.7a9.87,9.87,0,0,1-.66,3.74A6.17,6.17,0,0,1,53,69.69a7.4,7.4,0,0,1-3.46,1.94l-.68.14c-.41,0-.61-.1-.61-.3l.2-.51q2.94-3.37,2.94-16.62c0-.8,0-1.41,0-1.81a13.8,13.8,0,0,0-1.69.1h0c-.29,0-.44-.12-.44-.37L49.25,51c0-.2.21-.3.56-.3h1.45V48.44l.08-3.18a1.76,1.76,0,0,1,.1-.52,2.78,2.78,0,0,1,.87-.87,7.57,7.57,0,0,1,2.26-1.07,8.26,8.26,0,0,1,2.55-.49c.71,0,1.07.18,1.07.54q0,.19-.36.33a3.07,3.07,0,0,0-1.91,1.73,11.19,11.19,0,0,0-.75,4.84v.94c1.37,0,2.27-.1,2.7-.17.18,0,.28.13.28.4a1.83,1.83,0,0,1-.42,1,1.31,1.31,0,0,1-1,.6c-.42,0-.93,0-1.55,0C55.08,54.2,55.05,55.64,55.05,56.82Z"/><path class="cls-1" d="M64.55,56.82l.2,6.7a9.87,9.87,0,0,1-.66,3.74,6.26,6.26,0,0,1-1.63,2.43A7.43,7.43,0,0,1,59,71.63l-.68.14q-.6,0-.6-.3l.2-.51q2.94-3.37,2.94-16.62c0-.8,0-1.41,0-1.81a13.85,13.85,0,0,0-1.7.1h0c-.29,0-.44-.12-.44-.37L58.75,51q0-.3.57-.3h1.45V48.44l.08-3.18a1.49,1.49,0,0,1,.1-.52c.06-.19.35-.48.86-.87a7.57,7.57,0,0,1,2.26-1.07,8.26,8.26,0,0,1,2.55-.49c.72,0,1.07.18,1.07.54q0,.19-.36.33a3.07,3.07,0,0,0-1.91,1.73,11.19,11.19,0,0,0-.75,4.84v.94c1.37,0,2.27-.1,2.7-.17.19,0,.28.13.28.4a1.83,1.83,0,0,1-.42,1,1.29,1.29,0,0,1-1,.6c-.42,0-.93,0-1.55,0C64.58,54.2,64.55,55.64,64.55,56.82Z"/><path class="cls-1" d="M80.46,61.14a3.94,3.94,0,0,1-.63,2.23,4.12,4.12,0,0,1-1.41,1.41,7.28,7.28,0,0,1-1.83.72,10.52,10.52,0,0,1-2.54.34,5.87,5.87,0,0,1-5-2.12,8.61,8.61,0,0,1-1.61-5.37,9.19,9.19,0,0,1,2-5.82,7.13,7.13,0,0,1,6-2.55q3.63,0,4.92,2.12a2.86,2.86,0,0,1,.52,1.52,6.71,6.71,0,0,1-.08,1.14A4.6,4.6,0,0,1,80.22,56a5.72,5.72,0,0,1-1.29,1.5,8.35,8.35,0,0,1-2.54,1.28,16.67,16.67,0,0,1-4.07.8c-.21,0-.32.08-.32.24a2.5,2.5,0,0,0,.26.88,4.18,4.18,0,0,0,.59,1,3.4,3.4,0,0,0,2.61.94,4.6,4.6,0,0,0,2.94-.94,3.94,3.94,0,0,0,1-1.24.48.48,0,0,1,.42-.27c.18,0,.32.13.43.37A1.78,1.78,0,0,1,80.46,61.14Zm-8.78-4.45,0,.83c0,.14.11.21.32.21a6.64,6.64,0,0,0,2.26-.56,4.31,4.31,0,0,0,1.45-1,4.38,4.38,0,0,0,1-2.14l0-.41c0-1.2-.57-1.81-1.73-1.81a2.63,2.63,0,0,0-2.09.94A5.68,5.68,0,0,0,71.68,56.69Z"/><path class="cls-1" d="M95.28,61.14a3.94,3.94,0,0,1-.63,2.23,4.12,4.12,0,0,1-1.41,1.41,7.28,7.28,0,0,1-1.83.72,10.58,10.58,0,0,1-2.54.34,5.87,5.87,0,0,1-5-2.12,8.61,8.61,0,0,1-1.61-5.37,9.19,9.19,0,0,1,2-5.82,7.12,7.12,0,0,1,6-2.55q3.63,0,4.91,2.12a2.79,2.79,0,0,1,.53,1.52,6.71,6.71,0,0,1-.08,1.14A4.72,4.72,0,0,1,95,56a5.5,5.5,0,0,1-1.28,1.5,8.35,8.35,0,0,1-2.54,1.28,16.77,16.77,0,0,1-4.07.8c-.21,0-.32.08-.32.24a2.5,2.5,0,0,0,.26.88,3.87,3.87,0,0,0,.59,1,3.4,3.4,0,0,0,2.61.94,4.6,4.6,0,0,0,2.94-.94,3.94,3.94,0,0,0,1-1.24.48.48,0,0,1,.42-.27c.18,0,.32.13.42.37A1.62,1.62,0,0,1,95.28,61.14ZM86.5,56.69l0,.83c0,.14.1.21.32.21a6.52,6.52,0,0,0,2.25-.56,4.12,4.12,0,0,0,1.45-1,4.32,4.32,0,0,0,1-2.14l0-.41c0-1.2-.58-1.81-1.73-1.81a2.63,2.63,0,0,0-2.09.94A5.68,5.68,0,0,0,86.5,56.69Z"/></g></g></svg>